<svg id="Layer_1" data-name="Layer 1" xmlns="http://www.w3.org/2000/svg" viewBox="0 0 1024 785.64"><path d="M1003.67,734.68S671.3,40.34,666.65,30.54C660.89,18.39,650,18,645.09,31.42L512.17,328.18,508.51,320,379.25,31.42c-4.88-13.44-15.8-13-21.57-.88-4.65,9.8-337,704.14-337,704.14-3.1,7.72,0,15.45,6.18,18.54,1.54,1.55,4.63,1.55,6.18,1.55H226.21l128.56-287c4.87-13.45,15.8-13,21.57-.88.91,1.92,14.41,30.14,35.53,74.26h0c9.14,19.11,19.73,41.23,31.33,65.47l1.2,2.5,10,20.91,7.25,15.13c15.54,32.48,32.34,67.56,49.63,103.7,1,2,1.89,3.94,2.84,5.93h1.44l128.56-287c4.88-13.45,15.8-13,21.57-.88,2,4.26,66.06,138.07,137.78,287.91H991.3c1.55,0,4.64,0,6.19-1.55C1003.67,750.13,1006.76,742.4,1003.67,734.68Z" style="fill:#fff;opacity:0.4"/><path d="M1003.67,734.68S671.3,40.34,666.65,30.54C660.89,18.39,650,18,645.09,31.42L411.87,541.13c25.13,52.52,61.07,127.6,99.41,207.71,1,2,1.89,3.94,2.84,5.93h1.44l128.56-287c4.88-13.45,15.8-13,21.57-.88,2,4.26,66.06,138.07,137.78,287.91H991.3c1.55,0,4.64,0,6.19-1.55C1003.67,750.13,1006.76,742.4,1003.67,734.68Z" style="fill:#fff;opacity:0.6000000000000001"/></svg>